<svg
            width="32"
            height="32"
            viewBox="0 0 46 51"
            fill="none"
            xmlns="http://www.w3.org/2000/svg"
          >
            <path
              d="M29.0959 2.07422H17.3154C15.3635 2.07422 13.7812 3.65599 13.7812 5.6072V10.3179C13.7812 12.2691 15.3635 13.8508 17.3154 13.8508H29.0959C31.0477 13.8508 32.63 12.2691 32.63 10.3179V5.6072C32.63 3.65599 31.0477 2.07422 29.0959 2.07422Z"
              fill="#DBC864"
              stroke="white"
              stroke-width="3"
              stroke-linecap="round"
              stroke-linejoin="round"
            />
            <path
              d="M30.2731 20.918H16.1366C8.32915 20.918 2 27.2451 2 35.0499C2 42.8548 8.32915 49.1818 16.1366 49.1818H30.2731C38.0805 49.1818 44.4097 42.8548 44.4097 35.0499C44.4097 27.2451 38.0805 20.918 30.2731 20.918Z"
              fill="#DBC864"
              stroke="white"
              stroke-width="3"
              stroke-linecap="round"
              stroke-linejoin="round"
            />
            <path
              d="M2 36.227C5.58362 31.673 16.1366 32.6941 23.2048 35.0494C30.2731 37.4047 39.6975 40.9377 44.4097 35.0494"
              fill="#DBC864"
            />
            <path
              d="M2 36.227C5.58362 31.673 16.1366 32.6941 23.2048 35.0494C30.2731 37.4047 39.6975 40.9377 44.4097 35.0494"
              stroke="white"
              stroke-width="3"
              stroke-linecap="round"
              stroke-linejoin="round"
            />
            <path
              d="M24.3795 7.96282C24.3795 8.27515 24.2554 8.5747 24.0345 8.79555C23.8136 9.0164 23.5139 9.14048 23.2015 9.14048C22.889 9.14048 22.5894 9.0164 22.3685 8.79555C22.1476 8.5747 22.0234 8.27515 22.0234 7.96282C22.0234 7.65048 22.1476 7.35094 22.3685 7.13009C22.5894 6.90923 22.889 6.78516 23.2015 6.78516C23.5139 6.78516 23.8136 6.90923 24.0345 7.13009C24.2554 7.35094 24.3795 7.65048 24.3795 7.96282Z"
              fill="#DBC864"
            />
          </svg>